<svg width="22.000000" height="31.000000" viewBox="0 0 22 31" fill="none" xmlns="http://www.w3.org/2000/svg" xmlns:xlink="http://www.w3.org/1999/xlink">
	<desc>
			Created with Pixso.
	</desc>
	<defs/>
	<path id="Vector" d="M20.81 28.94L20.25 28.94C20.25 28.93 20.25 28.93 20.24 28.92L20.23 28.85C20.22 28.81 20.21 28.76 20.2 28.72C20.19 28.7 20.19 28.68 20.18 28.65C20.17 28.6 20.15 28.54 20.14 28.48L20.13 28.46C20.11 28.4 20.1 28.33 20.08 28.27L20.06 28.21C20.05 28.17 20.03 28.12 20.02 28.08C20.01 28.06 20 28.03 20 28.01C19.98 27.97 19.97 27.93 19.95 27.89C19.95 27.87 19.94 27.84 19.93 27.82C19.91 27.77 19.89 27.72 19.87 27.67C19.87 27.66 19.87 27.65 19.86 27.64C19.84 27.58 19.81 27.52 19.79 27.46C19.78 27.44 19.77 27.41 19.76 27.39C19.75 27.36 19.73 27.31 19.71 27.27L19.68 27.2C19.66 27.17 19.65 27.13 19.63 27.09C19.62 27.07 19.61 27.04 19.6 27.02C19.58 26.98 19.56 26.93 19.54 26.89C19.53 26.88 19.52 26.86 19.51 26.84C19.48 26.79 19.45 26.73 19.43 26.68L19.39 26.61L19.33 26.51L19.29 26.43C19.27 26.4 19.25 26.37 19.23 26.34C19.22 26.31 19.2 26.29 19.19 26.26C19.17 26.23 19.15 26.19 19.13 26.16L19.07 26.07C19.04 26.03 19.01 25.99 18.99 25.94C18.97 25.92 18.95 25.89 18.93 25.87C18.92 25.84 18.9 25.81 18.88 25.78C18.86 25.76 18.84 25.73 18.82 25.7C18.8 25.67 18.79 25.65 18.77 25.63C18.75 25.6 18.73 25.57 18.71 25.54L18.65 25.47C18.61 25.42 18.58 25.37 18.54 25.32L18.48 25.25C18.46 25.22 18.44 25.19 18.41 25.17L18.36 25.1C18.34 25.07 18.31 25.05 18.29 25.02L18.24 24.96L18.16 24.87L18.11 24.82C18.02 24.72 17.92 24.61 17.82 24.52L17.78 24.47L17.69 24.38L17.65 24.34C17.61 24.31 17.58 24.28 17.55 24.25L17.52 24.22C17.41 24.12 17.29 24.02 17.17 23.92L17.14 23.89C17.11 23.86 17.07 23.83 17.03 23.81L17 23.78C16.96 23.75 16.92 23.72 16.88 23.69L16.86 23.67C16.74 23.57 16.6 23.48 16.47 23.39L16.45 23.37C16.41 23.34 16.37 23.31 16.32 23.29L16.3 23.27C16.25 23.24 16.21 23.21 16.16 23.18L16.16 23.18C16.01 23.09 15.86 23 15.71 22.91L15.71 22.91C15.66 22.88 15.61 22.86 15.56 22.83L15.54 22.82C15.29 22.69 15.03 22.56 14.76 22.45L14.74 22.44C14.67 22.41 14.6 22.38 14.53 22.35L15.94 22.35C16.17 22.35 16.36 22.1 16.36 21.79C16.36 21.48 16.17 21.23 15.94 21.23L15.52 21.23C15.55 21.17 15.58 21.1 15.61 21.02C16.01 20.78 16.71 20.28 17.4 19.36L17.41 19.35C17.46 19.28 17.51 19.21 17.56 19.14L17.57 19.12C17.62 19.05 17.67 18.98 17.72 18.9L17.74 18.88C17.76 18.84 17.78 18.8 17.81 18.77C17.81 18.77 17.81 18.76 17.81 18.76C17.83 18.73 17.86 18.68 17.88 18.64L17.9 18.62C17.92 18.58 17.94 18.55 17.96 18.51C17.96 18.51 17.97 18.5 17.97 18.49C17.99 18.45 18.02 18.41 18.04 18.37L18.06 18.34C18.08 18.31 18.09 18.27 18.11 18.24C18.12 18.23 18.12 18.22 18.13 18.21C18.15 18.17 18.17 18.12 18.19 18.08L18.21 18.05C18.23 18.01 18.25 17.98 18.26 17.94L18.28 17.9C18.3 17.86 18.32 17.82 18.34 17.77L18.36 17.74C18.37 17.7 18.39 17.67 18.41 17.63L18.43 17.58C18.45 17.54 18.47 17.49 18.49 17.45C18.49 17.44 18.49 17.43 18.5 17.42C18.52 17.38 18.53 17.34 18.55 17.29L18.57 17.24C18.59 17.2 18.6 17.16 18.62 17.12L18.63 17.09C18.65 17.04 18.67 16.99 18.68 16.94L18.7 16.89C18.72 16.85 18.73 16.81 18.75 16.76C18.75 16.75 18.76 16.73 18.76 16.72C18.78 16.67 18.8 16.62 18.81 16.56C18.82 16.54 18.82 16.53 18.83 16.51L18.87 16.38C18.87 16.37 18.88 16.35 18.88 16.33C18.9 16.28 18.92 16.22 18.93 16.17C18.94 16.15 18.94 16.13 18.95 16.11C18.96 16.07 18.97 16.03 18.98 15.98C18.99 15.96 18.99 15.94 19 15.92C19.01 15.87 19.03 15.81 19.04 15.75L19.05 15.7C19.06 15.65 19.08 15.61 19.09 15.56L19.1 15.49C19.11 15.43 19.13 15.37 19.14 15.31C19.14 15.3 19.14 15.29 19.15 15.27C19.16 15.22 19.17 15.17 19.18 15.11C19.18 15.09 19.19 15.07 19.19 15.04C19.2 14.99 19.21 14.93 19.22 14.88C19.22 14.86 19.23 14.85 19.23 14.84C19.24 14.78 19.25 14.71 19.26 14.64C19.26 14.62 19.27 14.6 19.27 14.57C19.28 14.52 19.29 14.47 19.29 14.41L19.3 14.36C19.31 14.29 19.32 14.22 19.33 14.15C19.33 14.13 19.33 14.11 19.34 14.08C19.34 14.03 19.35 13.97 19.36 13.92C19.36 13.9 19.36 13.88 19.36 13.86C19.37 13.78 19.38 13.71 19.38 13.64C19.38 13.62 19.39 13.6 19.39 13.57C19.39 13.52 19.4 13.46 19.4 13.4C19.4 13.37 19.41 13.35 19.41 13.33C19.41 13.25 19.42 13.18 19.42 13.1C19.42 13.08 19.42 13.06 19.43 13.05C19.43 12.98 19.43 12.92 19.44 12.85C19.44 12.83 19.44 12.8 19.44 12.78C19.44 12.7 19.45 12.62 19.45 12.54C19.45 12.53 19.45 12.52 19.45 12.5C19.45 12.43 19.45 12.36 19.45 12.28C19.45 12.26 19.45 12.23 19.45 12.21C19.45 12.13 19.45 12.05 19.45 11.97L19.45 11.95C19.45 11.86 19.45 11.78 19.45 11.69L19.45 11.61C19.45 11.54 19.45 11.46 19.45 11.38L19.45 11.34C19.45 11.25 19.44 11.16 19.44 11.07C19.44 11.04 19.44 11.02 19.44 11C19.43 10.92 19.43 10.84 19.42 10.76C19.42 10.75 19.42 10.73 19.42 10.71C19.41 10.61 19.41 10.52 19.4 10.42L19.4 10.36C19.39 10.28 19.39 10.2 19.38 10.12C19.38 10.09 19.38 10.07 19.37 10.05C19.37 9.95 19.36 9.85 19.35 9.75C19.35 9.73 19.34 9.72 19.34 9.7C19.33 9.61 19.32 9.53 19.31 9.44C19.31 9.42 19.31 9.39 19.31 9.37C19.29 9.26 19.28 9.16 19.27 9.06C19.27 9.04 19.27 9.03 19.27 9.02C19.25 8.93 19.24 8.83 19.23 8.74C19.23 8.71 19.22 8.68 19.22 8.66C19.2 8.55 19.19 8.44 19.17 8.34C17.59 -2.32 6.4 -0.59 6.4 -0.59L6.76 1.7L0 8.48L0.29 11.09L2.85 12.59C2.97 12.31 3.12 12.05 3.29 11.81C4.95 10 8.15 8.58 9.07 8.28C9.26 8.23 9.36 8.2 9.36 8.2C4.97 13.59 5.47 19.76 5.66 21.24C5.46 21.27 5.3 21.51 5.3 21.79C5.3 22.1 5.49 22.35 5.72 22.35L7.13 22.35C4.78 23.29 2.92 25.06 1.94 27.29C1.94 27.3 1.94 27.3 1.94 27.3C1.87 27.47 1.8 27.64 1.74 27.81C1.74 27.81 1.74 27.81 1.74 27.81C1.72 27.86 1.71 27.9 1.69 27.95C1.68 27.97 1.68 27.98 1.67 28C1.66 28.04 1.65 28.09 1.63 28.13C1.63 28.15 1.62 28.17 1.61 28.19C1.6 28.23 1.59 28.27 1.58 28.32L1.56 28.39C1.54 28.43 1.53 28.47 1.52 28.51C1.52 28.53 1.51 28.56 1.5 28.59C1.49 28.63 1.48 28.66 1.47 28.7C1.46 28.74 1.45 28.78 1.45 28.82C1.44 28.86 1.43 28.9 1.42 28.95L0.85 28.95C0.75 28.94 0.64 28.96 0.54 29C0.44 29.04 0.34 29.09 0.27 29.17C0.19 29.24 0.13 29.32 0.09 29.42C0.04 29.51 0.02 29.61 0.02 29.72C0.02 29.82 0.04 29.92 0.09 30.02C0.13 30.11 0.19 30.2 0.27 30.27C0.34 30.34 0.44 30.4 0.54 30.43C0.64 30.47 0.75 30.49 0.85 30.49L20.82 30.49C20.93 30.49 21.03 30.47 21.14 30.43C21.24 30.4 21.33 30.34 21.41 30.27C21.48 30.2 21.54 30.11 21.59 30.02C21.63 29.92 21.65 29.82 21.65 29.72C21.65 29.61 21.63 29.51 21.59 29.42C21.54 29.32 21.48 29.24 21.41 29.17C21.33 29.09 21.24 29.04 21.14 29C21.03 28.96 20.93 28.94 20.82 28.95L20.81 28.94Z" fill="#595653" fill-opacity="1.000000" fill-rule="nonzero"/>
</svg>
